<?xml version="1.0" standalone="no"?>
<!DOCTYPE svg PUBLIC "-//W3C//DTD SVG 20010904//EN"
 "http://www.w3.org/TR/2001/REC-SVG-20010904/DTD/svg10.dtd">
<svg version="1.0" xmlns="http://www.w3.org/2000/svg"
 width="16.000000pt" height="16.000000pt" viewBox="0 0 16.000000 16.000000"
 preserveAspectRatio="xMidYMid meet">
<metadata>
Created by potrace 1.11, written by Peter Selinger 2001-2013
</metadata>
<g transform="translate(0.000000,16.000000) scale(0.003604,-0.003604)"
fill="#000000" stroke="none">
<path d="M2338 4355 c-1 -1 -55 -5 -118 -8 -63 -3 -133 -9 -155 -12 -22 -3
-56 -7 -75 -9 -52 -4 -194 -39 -201 -49 -3 -5 -10 -8 -15 -7 -14 1 -108 -22
-119 -30 -5 -4 -23 -10 -39 -14 -15 -4 -47 -15 -70 -25 -82 -36 -98 -41 -108
-35 -6 4 -9 3 -5 -2 3 -5 -47 -36 -110 -69 -249 -128 -473 -301 -610 -471
-141 -174 -161 -205 -97 -143 78 73 102 94 200 174 154 125 369 243 569 310
28 9 59 21 70 25 19 8 64 23 75 25 3 0 28 8 55 17 53 17 113 31 117 27 2 -1
12 3 24 9 11 6 32 13 45 16 13 3 67 14 119 26 181 40 262 48 425 44 77 -1 151
-5 165 -9 14 -3 48 -7 75 -10 28 -2 64 -9 80 -15 17 -6 32 -11 35 -11 26 2
210 -58 231 -75 8 -8 22 -14 30 -14 8 0 20 -5 27 -12 6 -6 22 -13 34 -15 13
-2 25 -8 26 -13 2 -6 10 -10 18 -10 8 0 14 -4 14 -10 0 -5 6 -10 13 -10 44 0
301 -226 337 -296 8 -16 25 -45 37 -64 12 -19 25 -53 29 -74 3 -22 9 -49 14
-60 15 -40 3 -171 -21 -227 -52 -123 -110 -203 -198 -272 -36 -28 -72 -57 -79
-64 -7 -7 -17 -13 -20 -13 -4 0 -34 -20 -67 -44 -32 -25 -71 -51 -85 -58 -14
-7 -51 -27 -82 -45 -31 -17 -70 -34 -87 -38 -17 -4 -31 -11 -31 -16 0 -5 -11
-9 -23 -9 -13 0 -27 -3 -31 -7 -4 -5 -11 -8 -14 -9 -4 0 -14 -3 -22 -6 -55
-21 -161 -58 -168 -58 -33 -2 -81 -14 -78 -19 2 -3 -8 -6 -22 -7 -15 0 -43 -3
-62 -6 -106 -20 -278 -29 -319 -19 -21 6 -22 8 -7 20 12 10 54 15 139 17 138
3 199 20 272 76 54 41 68 68 71 139 5 115 -69 208 -178 222 -51 7 -131 -4
-218 -31 -60 -18 -69 -23 -112 -67 -37 -37 -47 -60 -45 -112 1 -23 0 -40 -2
-37 -2 2 -11 -4 -20 -14 -27 -30 -94 -50 -148 -43 -33 3 1 118 52 176 40 46
75 130 75 179 0 66 -43 135 -100 161 -53 24 -51 41 8 49 93 12 225 113 269
206 32 66 35 125 8 186 -46 104 -125 163 -219 164 -121 0 -189 -51 -224 -172
-70 -234 -127 -313 -237 -323 -148 -14 -266 -69 -334 -155 -57 -72 -208 -366
-218 -423 -8 -54 5 -103 35 -130 82 -73 111 -104 116 -123 5 -16 -12 -45 -64
-115 -39 -52 -83 -115 -97 -140 -24 -46 -26 -46 -51 -33 -15 8 -37 14 -49 14
-12 0 -24 4 -27 8 -6 11 -85 17 -211 17 -94 0 -102 -2 -137 -28 -39 -30 -68
-89 -68 -136 0 -31 55 -142 96 -196 13 -18 24 -35 24 -40 0 -4 11 -18 26 -31
14 -13 22 -24 19 -24 -5 0 35 -57 73 -105 4 -5 18 -25 30 -42 l23 -32 -34 -98
c-67 -194 -90 -250 -147 -368 -62 -127 -84 -192 -100 -290 -21 -132 -125 -352
-230 -487 l-20 -26 30 -7 c16 -4 30 -13 30 -20 0 -16 -49 -66 -118 -120 -55
-43 -67 -80 -37 -105 26 -21 104 -13 154 17 51 30 167 143 176 173 6 18 16 20
114 20 l107 0 0 93 c0 50 3 121 6 157 6 68 82 309 124 392 13 26 35 75 48 110
24 63 73 170 91 198 5 8 10 17 10 20 0 3 8 16 17 29 17 24 17 24 56 7 36 -17
80 -52 112 -92 31 -40 105 -129 110 -134 31 -30 126 -161 159 -220 51 -90 45
-83 70 -75 19 6 20 13 16 133 -2 70 -4 132 -5 137 -6 29 1 36 30 30 40 -9 90
-34 90 -46 0 -5 7 -9 15 -9 8 0 15 -4 15 -9 0 -4 19 -21 42 -37 90 -61 156
-114 179 -145 13 -17 34 -42 46 -56 17 -19 20 -30 13 -54 -14 -49 -22 -181
-13 -229 l9 -45 53 -1 c44 -1 54 2 58 17 3 11 9 19 14 19 23 0 109 -35 145
-60 54 -36 98 -50 163 -51 99 -3 107 52 15 107 -55 34 -134 106 -134 123 0 12
36 11 75 -3 55 -19 124 -59 118 -69 -3 -6 -1 -7 5 -3 6 3 44 -9 84 -28 40 -19
102 -44 138 -56 95 -31 177 -89 270 -189 114 -124 176 -146 165 -59 -3 23 -10
47 -14 52 -5 6 -12 22 -16 36 -7 22 -34 64 -73 110 -20 24 -14 35 20 36 56 2
221 14 258 19 19 3 50 6 68 7 18 1 35 5 38 10 3 4 9 6 13 4 4 -3 25 0 47 6 21
6 50 12 64 13 14 0 31 5 38 9 7 4 12 5 12 3 0 -3 30 4 68 15 37 10 72 20 79
21 7 2 16 6 19 10 4 4 15 7 24 7 9 0 35 9 58 20 22 11 46 20 52 20 22 0 147
64 215 110 84 57 227 188 219 201 -3 5 -2 8 3 7 4 -2 20 10 35 25 15 15 24 27
21 27 -3 0 1 8 9 18 40 44 116 211 134 293 52 235 53 427 4 610 -15 54 -53
129 -128 246 -35 55 -173 196 -198 201 -8 2 -14 9 -14 15 0 7 -23 25 -50 42
-28 16 -50 33 -50 37 0 4 -3 7 -7 6 -5 -1 -46 16 -93 39 -47 22 -103 47 -125
54 -22 8 -43 18 -46 22 -3 5 -9 8 -13 8 -6 -1 -27 6 -67 20 -46 18 -139 36
-133 28 3 -5 9 -9 14 -9 5 0 33 -11 62 -23 29 -13 55 -24 58 -25 5 -1 93 -52
179 -104 59 -36 172 -142 211 -198 13 -19 27 -37 31 -40 19 -14 99 -189 114
-251 16 -65 16 -174 0 -270 -2 -13 -6 -41 -9 -62 -8 -49 -66 -220 -78 -228 -5
-3 -10 -10 -10 -15 -3 -54 -140 -205 -280 -308 -82 -60 -80 -59 -109 -75 -167
-98 -349 -166 -496 -187 -91 -13 -439 -4 -466 13 -4 2 -20 6 -35 9 -61 10 -91
17 -176 41 -48 14 -96 26 -104 27 -9 2 -18 8 -20 14 -2 7 -11 12 -19 12 -19 0
-125 63 -174 103 l-35 30 -2 101 c-1 56 -4 112 -7 126 -7 35 -23 136 -30 192
-8 65 -174 302 -334 478 -56 62 -81 118 -81 184 0 30 3 61 6 70 7 19 59 55
179 123 100 57 120 61 313 65 62 1 115 5 118 10 3 4 12 4 20 0 14 -8 74 -3
167 13 91 16 305 76 417 117 30 11 60 21 65 22 12 3 59 22 95 37 14 6 39 17
55 24 17 7 65 29 108 49 42 21 83 34 90 30 6 -4 9 -3 4 1 -10 11 70 58 85 49
6 -4 8 -3 5 3 -4 6 34 36 84 68 50 32 121 87 158 124 63 61 136 160 131 177
-1 4 3 10 8 13 15 10 77 131 96 190 18 55 25 197 11 242 -13 43 -58 143 -78
172 -10 15 -15 27 -10 27 4 0 4 4 -2 8 -5 4 -28 30 -50 57 -61 76 -108 119
-198 178 -145 95 -334 186 -358 172 -7 -5 -10 -4 -6 2 4 6 -27 19 -76 33 -85
23 -118 33 -152 46 -24 9 -22 8 -65 17 -19 4 -46 9 -60 12 -106 22 -223 36
-325 41 -66 3 -125 7 -132 9 -6 2 -13 2 -15 0z"/>
</g>
</svg>
